<?xml version="1.0" encoding="utf-8"?>
<!-- Generator: Adobe Illustrator 18.0.0, SVG Export Plug-In . SVG Version: 6.00 Build 0)  -->
<!DOCTYPE svg PUBLIC "-//W3C//DTD SVG 1.1//EN" "http://www.w3.org/Graphics/SVG/1.1/DTD/svg11.dtd">
<svg version="1.1" id="Layer_1" xmlns="http://www.w3.org/2000/svg" xmlns:xlink="http://www.w3.org/1999/xlink" x="0px" y="0px"
	 viewBox="0 0 1700 1400" enable-background="new 0 0 1700 1400" xml:space="preserve">
<g>
	<defs>
		<rect id="SVGID_37_" width="1700" height="1400"/>
	</defs>
	<clipPath id="SVGID_2_">
		<use xlink:href="#SVGID_37_"  overflow="visible"/>
	</clipPath>
	<radialGradient id="SVGID_3_" cx="831" cy="1677" r="1708.0187" gradientUnits="userSpaceOnUse">
		<stop  offset="0" style="stop-color:#E5D4B9"/>
		<stop  offset="0.3399" style="stop-color:#E5D2B7"/>
		<stop  offset="0.5156" style="stop-color:#E5CBAF"/>
		<stop  offset="0.6538" style="stop-color:#E4BFA2"/>
		<stop  offset="0.7724" style="stop-color:#E3AF8F"/>
		<stop  offset="0.8783" style="stop-color:#E29976"/>
		<stop  offset="0.974" style="stop-color:#E17F58"/>
		<stop  offset="0.9987" style="stop-color:#E1774F"/>
	</radialGradient>
	<path clip-path="url(#SVGID_2_)" fill="url(#SVGID_3_)" d="M59.9,730.4c39.3,9.8,77.2,27.5,117.7,28.1c32,0.4,63.4-10,95.4-9.4
		c37.4,0.7,73.2,16.5,110.5,17.7c50.7,1.5,98.4-23.9,148.7-30.3c83.5-10.6,164.7,31.6,248.7,35.7c82.3,4.1,164.2-28.5,245.9-17.3
		c32.6,4.5,65,16,97.7,12.2c39.5-4.6,74.7-31,114.4-31.7c38-0.7,72,22,108.9,31.1c25.2,6.2,49.3,4.2,74.7,3.3
		c28.1-1,50.8-5.8,76.9-17.2c26.3-11.5,53.1-24.6,81.8-24.4c34.6,0.2,65.9,19.7,99.4,28.5c6.5,1.7,12.9,2.8,19.3,3.5V0H0v725.4
		C19.7,723.2,40.7,725.6,59.9,730.4z"/>
	<circle clip-path="url(#SVGID_2_)" fill="#EAE0C4" cx="850" cy="700" r="291.9"/>
	<g clip-path="url(#SVGID_2_)">
		<linearGradient id="SVGID_4_" gradientUnits="userSpaceOnUse" x1="1363.366" y1="947.1003" x2="1515.5061" y2="570.5403">
			<stop  offset="0" style="stop-color:#684651"/>
			<stop  offset="0.1525" style="stop-color:#6E4851"/>
			<stop  offset="0.3565" style="stop-color:#7F4F52"/>
			<stop  offset="0.5897" style="stop-color:#9B5B52"/>
			<stop  offset="0.8426" style="stop-color:#C16B53"/>
			<stop  offset="0.9987" style="stop-color:#DD7654"/>
		</linearGradient>
		<path fill="url(#SVGID_4_)" d="M1620.9,701.8c-45.3-6.1-91.3-15.8-130-40.1c-17.2-10.8-33.8-26.8-34.8-47.1
			c-1-20.8,15.2-41.1,29.8-56c-164.2,71.2-323.8,153.2-477.3,245.2c272,0.1,562.4-23.1,834.4-23c-1-24.3-3.6-48.9-6.5-73.5
			C1764.8,713.3,1692.4,711.5,1620.9,701.8z"/>
		<linearGradient id="SVGID_5_" gradientUnits="userSpaceOnUse" x1="1621.3184" y1="717.8825" x2="1685.3428" y2="559.4166">
			<stop  offset="0" style="stop-color:#684651"/>
			<stop  offset="0.9987" style="stop-color:#DD7654"/>
		</linearGradient>
		<path fill="url(#SVGID_5_)" d="M1456.2,614.6c0.9,20.3,17.6,36.3,34.8,47.1c38.7,24.4,84.7,34,130,40.1
			c71.4,9.6,143.9,11.4,215.7,5.5c-3.5-30.2-7.2-60.4-8.4-90.1c0,0-342.3-58.6-342.3-58.6C1471.4,573.5,1455.2,593.8,1456.2,614.6z"
			/>
	</g>
	<g clip-path="url(#SVGID_2_)">
		<linearGradient id="SVGID_6_" gradientUnits="userSpaceOnUse" x1="315.0997" y1="561.6733" x2="262.9467" y2="713.1365">
			<stop  offset="1.315370e-03" style="stop-color:#DD7654"/>
			<stop  offset="1" style="stop-color:#684651"/>
		</linearGradient>
		<path fill="url(#SVGID_6_)" d="M46.7,617c22.4,17,53.5,14.4,80.7,21.7c53.6,14.3,91.6,67.1,146.1,76.8
			c48.2,8.5,94.4-18.7,139.9-36.7c52.9-20.9,110.3-29.3,167-25.7c-21-6.7-42.7-11-64.7-12.5c-51.5-3.5-102.7,7.2-154.1,11.7
			c-51.4,4.5-106,2.1-150.1-24.6c-53.7-32.5-87.8-98.5-149.3-111.1c-8.6-1.8-17.2-2.3-25.8-2c-3.4,6.2-6.4,12.7-8.7,19.5
			C18,562.7,22.6,598.6,46.7,617z"/>
		<linearGradient id="SVGID_7_" gradientUnits="userSpaceOnUse" x1="749.3111" y1="795.9421" x2="749.2144" y2="796.2232">
			<stop  offset="1.315370e-03" style="stop-color:#DD7654"/>
			<stop  offset="1" style="stop-color:#684651"/>
		</linearGradient>
		<path fill="url(#SVGID_7_)" d="M749.4,796.3c-0.1-0.1-0.1-0.2-0.2-0.4C749.2,796.1,749.3,796.3,749.4,796.3z"/>
		<linearGradient id="SVGID_8_" gradientUnits="userSpaceOnUse" x1="748.2722" y1="783.123" x2="744.4362" y2="794.2635">
			<stop  offset="1.315370e-03" style="stop-color:#DD7654"/>
			<stop  offset="1" style="stop-color:#684651"/>
		</linearGradient>
		<path fill="url(#SVGID_8_)" d="M750.3,783.8h-7.6c2.2,4,4.4,8,6.4,12.1C748.9,793.8,751.2,783.8,750.3,783.8z"/>
		<linearGradient id="SVGID_9_" gradientUnits="userSpaceOnUse" x1="303.9388" y1="557.7631" x2="180.8496" y2="915.2401">
			<stop  offset="1.315370e-03" style="stop-color:#DD7654"/>
			<stop  offset="8.243958e-02" style="stop-color:#CB6E54"/>
			<stop  offset="0.2626" style="stop-color:#A76053"/>
			<stop  offset="0.445" style="stop-color:#8B5552"/>
			<stop  offset="0.628" style="stop-color:#784C51"/>
			<stop  offset="0.8124" style="stop-color:#6C4851"/>
			<stop  offset="1" style="stop-color:#684651"/>
		</linearGradient>
		<path fill="url(#SVGID_9_)" d="M580.5,653c-56.7-3.6-114.2,4.8-167,25.7c-45.5,18-91.7,45.2-139.9,36.7
			c-54.6-9.7-92.6-62.5-146.1-76.8c-27.2-7.2-58.3-4.6-80.7-21.7c-24.1-18.4-28.7-54.3-18.9-83c2.3-6.8,5.3-13.3,8.7-19.5
			c-38.3,1.5-75.8,21.8-111.7,38.2c-43.9,20.2-99.1,34.2-137.6,5.1c33.1,65,28.1,154.8,12,225.9h943.5
			C707.7,722,648.1,674.7,580.5,653z"/>
	</g>
	<g clip-path="url(#SVGID_2_)">
		<g>
			<path fill="#1C4165" d="M1680.7,756.6c-33.5-8.7-64.8-28.2-99.4-28.5c-28.7-0.2-55.6,12.9-81.8,24.4
				c-26.1,11.5-48.8,16.2-76.9,17.2c-25.3,0.9-49.5,2.9-74.7-3.3c-36.9-9.1-70.9-31.8-108.9-31.1c-39.8,0.7-74.9,27.1-114.4,31.7
				c-32.7,3.8-65-7.7-97.7-12.2c-81.6-11.3-163.6,21.3-245.9,17.3c-84-4.1-165.2-46.3-248.7-35.7c-50.4,6.4-98,31.8-148.7,30.3
				c-37.4-1.1-73.2-16.9-110.5-17.7c-32-0.6-63.4,9.8-95.4,9.4c-40.5-0.5-78.4-18.3-117.7-28.1c-19.2-4.8-40.2-7.2-59.9-5V787
				c14.3,5.7,28,14.6,39.1,24.5c28.4,25.1,56.2,57.6,94,59.1c46.3,1.9,85.3-44.6,131.4-39.2c37.1,4.3,63.6,41.2,100.4,47.6
				c53.2,9.1,96.5-47.6,150.2-52.9c55.7-5.4,103,45.2,158.9,48c80.2,4,142.2-90.1,222-81.4c59.8,6.5,106,70.2,165.9,64.1
				c56.4-5.8,93.1-71.8,149.7-75.7c57.4-3.9,99.1,57.2,155.4,68.6c40.9,8.3,81.7-10.9,121.2-24.2c67.8-22.8,141-28.8,211.7-18.1
				v-47.3C1693.7,759.4,1687.3,758.3,1680.7,756.6z"/>
			<linearGradient id="SVGID_10_" gradientUnits="userSpaceOnUse" x1="850" y1="724.6102" x2="850" y2="879.9183">
				<stop  offset="0" style="stop-color:#53A5BD"/>
				<stop  offset="1" style="stop-color:#53A5BD;stop-opacity:0"/>
			</linearGradient>
			<path fill="url(#SVGID_10_)" d="M133.1,870.6c46.3,1.9,85.3-44.6,131.4-39.2c37.1,4.3,63.6,41.2,100.4,47.6
				c53.2,9.1,96.5-47.6,150.2-52.9c55.7-5.4,103,45.2,158.9,48c80.2,4,142.2-90.1,222-81.4c59.8,6.5,106,70.2,165.9,64.1
				c56.4-5.8,93.1-71.8,149.7-75.7c57.4-3.9,99.1,57.2,155.4,68.6c40.9,8.3,81.7-10.9,121.2-24.2c67.8-22.8,141-28.8,211.7-18.1
				v-47.3c-6.3-0.7-12.7-1.8-19.3-3.5c-33.5-8.7-64.8-28.2-99.4-28.5c-28.7-0.2-55.6,12.9-81.8,24.4c-26.1,11.5-48.8,16.2-76.9,17.2
				c-25.3,0.9-49.5,2.9-74.7-3.3c-36.9-9.1-70.9-31.8-108.9-31.1c-39.8,0.7-74.9,27.1-114.4,31.7c-32.7,3.8-65-7.7-97.7-12.2
				c-81.6-11.3-163.6,21.3-245.9,17.3c-84-4.1-165.2-46.3-248.7-35.7c-50.4,6.4-98,31.8-148.7,30.3c-37.4-1.1-73.2-16.9-110.5-17.7
				c-32-0.6-63.4,9.8-95.4,9.4c-40.5-0.5-78.4-18.3-117.7-28.1c-19.2-4.8-40.2-7.2-59.9-5V787c14.3,5.7,28,14.6,39.1,24.5
				C67.5,836.6,95.3,869,133.1,870.6z"/>
		</g>
		<g>
			<path fill="#1C4165" d="M1488.3,825.5c-39.6,13.3-80.3,32.5-121.2,24.2c-56.4-11.4-98.1-72.5-155.4-68.6
				c-56.6,3.8-93.2,69.9-149.7,75.7c-59.9,6.1-106.1-57.6-165.9-64.1c-79.8-8.7-141.8,85.3-222,81.4c-55.9-2.8-103.2-53.4-158.9-48
				c-53.7,5.2-97,62-150.2,52.9c-36.8-6.3-63.3-43.2-100.4-47.6c-46-5.4-85.1,41.2-131.4,39.2c-37.8-1.6-65.6-34-94-59.1
				C28,801.6,14.3,792.7,0,787v144.8c45.4,8.3,90.8,16.6,136.2,24.9c42.6,7.8,86.5,15.6,129,7.3c48.4-9.4,93.7-39.1,142.8-34.8
				c53.5,4.7,97.3,49,150.9,53.7c76.4,6.7,141-68.4,217.6-65.2c57.6,2.5,105.1,48.8,162.3,56.6c89.1,12.2,169.3-71.3,258.8-63.2
				c55.9,5.1,103.6,45.3,159.3,52.1c58.1,7.1,113.4-23,170.3-36.8c56.8-13.7,117.4-10.5,172.7,8.1V807.4
				C1629.3,796.8,1556.1,802.7,1488.3,825.5z"/>
			<linearGradient id="SVGID_11_" gradientUnits="userSpaceOnUse" x1="850" y1="780.9634" x2="850" y2="983.2797">
				<stop  offset="0" style="stop-color:#4792AB"/>
				<stop  offset="1" style="stop-color:#4792AB;stop-opacity:0"/>
			</linearGradient>
			<path fill="url(#SVGID_11_)" d="M1488.3,825.5c-39.6,13.3-80.3,32.5-121.2,24.2c-56.4-11.4-98.1-72.5-155.4-68.6
				c-56.6,3.8-93.2,69.9-149.7,75.7c-59.9,6.1-106.1-57.6-165.9-64.1c-79.8-8.7-141.8,85.3-222,81.4c-55.9-2.8-103.2-53.4-158.9-48
				c-53.7,5.2-97,62-150.2,52.9c-36.8-6.3-63.3-43.2-100.4-47.6c-46-5.4-85.1,41.2-131.4,39.2c-37.8-1.6-65.6-34-94-59.1
				C28,801.6,14.3,792.7,0,787v144.8c45.4,8.3,90.8,16.6,136.2,24.9c42.6,7.8,86.5,15.6,129,7.3c48.4-9.4,93.7-39.1,142.8-34.8
				c53.5,4.7,97.3,49,150.9,53.7c76.4,6.7,141-68.4,217.6-65.2c57.6,2.5,105.1,48.8,162.3,56.6c89.1,12.2,169.3-71.3,258.8-63.2
				c55.9,5.1,103.6,45.3,159.3,52.1c58.1,7.1,113.4-23,170.3-36.8c56.8-13.7,117.4-10.5,172.7,8.1V807.4
				C1629.3,796.8,1556.1,802.7,1488.3,825.5z"/>
		</g>
		<g>
			<path fill="#1C4165" d="M1527.3,926.5c-56.9,13.8-112.2,43.9-170.3,36.8c-55.7-6.8-103.4-47-159.3-52.1
				c-89.5-8.2-169.7,75.3-258.8,63.2c-57.1-7.8-104.7-54.1-162.3-56.6c-76.6-3.3-141.2,71.9-217.6,65.2
				c-53.5-4.7-97.3-49-150.9-53.7c-49.1-4.3-94.4,25.5-142.8,34.8c-42.6,8.2-86.4,0.4-129-7.3C90.8,948.3,45.4,940.1,0,931.8v141.9
				c38.6,15.8,82.1,19.7,122.5,8.6c57.5-15.7,109.2-58.4,168.6-53.9c57.2,4.4,104.7,52.2,162,54.3c78.5,2.8,146.3-81,222.8-62.7
				c53.2,12.7,87,71.6,141,80.5c67.6,11.2,124.3-60.8,192.8-60.8c62.2,0,112.1,59,174.2,61c70.6,2.3,124-68.5,193.9-79.4
				c44.2-6.9,88.4,11.4,127.8,32.6c39.4,21.2,78.2,46.1,122.2,54.3c23.8,4.4,50,2.4,72.3-6.6v-167
				C1644.6,916,1584.1,912.8,1527.3,926.5z"/>
			<linearGradient id="SVGID_12_" gradientUnits="userSpaceOnUse" x1="850" y1="910.5778" x2="850" y2="1110.4934">
				<stop  offset="0" style="stop-color:#3E7E9C"/>
				<stop  offset="1" style="stop-color:#3E7E9C;stop-opacity:0"/>
			</linearGradient>
			<path fill="url(#SVGID_12_)" d="M1527.3,926.5c-56.9,13.8-112.2,43.9-170.3,36.8c-55.7-6.8-103.4-47-159.3-52.1
				c-89.5-8.2-169.7,75.3-258.8,63.2c-57.1-7.8-104.7-54.1-162.3-56.6c-76.6-3.3-141.2,71.9-217.6,65.2
				c-53.5-4.7-97.3-49-150.9-53.7c-49.1-4.3-94.4,25.5-142.8,34.8c-42.6,8.2-86.4,0.4-129-7.3C90.8,948.3,45.4,940.1,0,931.8v141.9
				c38.6,15.8,82.1,19.7,122.5,8.6c57.5-15.7,109.2-58.4,168.6-53.9c57.2,4.4,104.7,52.2,162,54.3c78.5,2.8,146.3-81,222.8-62.7
				c53.2,12.7,87,71.6,141,80.5c67.6,11.2,124.3-60.8,192.8-60.8c62.2,0,112.1,59,174.2,61c70.6,2.3,124-68.5,193.9-79.4
				c44.2-6.9,88.4,11.4,127.8,32.6c39.4,21.2,78.2,46.1,122.2,54.3c23.8,4.4,50,2.4,72.3-6.6v-167
				C1644.6,916,1584.1,912.8,1527.3,926.5z"/>
		</g>
		<g>
			<path fill="#1C4165" d="M1511.2,1256.8c-89.8-18.9-182.6-43.4-271.9-22.6c-61.5,14.3-120.7,49.8-183.2,41
				c-74.2-10.4-130.4-80.9-205-87.1c-84.4-7-156.2,70.6-241,71.8c-74.6,1.1-138.7-57.1-213-63.2c-98.9-8.2-189.9,76.9-287.9,61.2
				c-35.8-5.7-68-24.5-102.4-35.7c-2.2-0.7-4.5-1.4-6.8-2.1V1400h1700v-129.2C1638.5,1279.6,1572.9,1269.8,1511.2,1256.8z"/>
			<linearGradient id="SVGID_13_" gradientUnits="userSpaceOnUse" x1="850" y1="1187.7479" x2="850" y2="1400">
				<stop  offset="0" style="stop-color:#2F668A"/>
				<stop  offset="1" style="stop-color:#2F668A;stop-opacity:0"/>
			</linearGradient>
			<path fill="url(#SVGID_13_)" d="M1511.2,1256.8c-89.8-18.9-182.6-43.4-271.9-22.6c-61.5,14.3-120.7,49.8-183.2,41
				c-74.2-10.4-130.4-80.9-205-87.1c-84.4-7-156.2,70.6-241,71.8c-74.6,1.1-138.7-57.1-213-63.2c-98.9-8.2-189.9,76.9-287.9,61.2
				c-35.8-5.7-68-24.5-102.4-35.7c-2.2-0.7-4.5-1.4-6.8-2.1V1400h1700v-129.2C1638.5,1279.6,1572.9,1269.8,1511.2,1256.8z"/>
		</g>
		<g>
			<path fill="#1C4165" d="M1627.7,1108.2c-44-8.2-82.7-33.1-122.2-54.3c-39.4-21.2-83.6-39.4-127.8-32.6
				c-69.8,10.9-123.2,81.7-193.9,79.4c-62.1-2-112-61.1-174.2-61c-68.5,0-125.3,72-192.8,60.8c-53.9-9-87.8-67.8-141-80.5
				c-76.4-18.3-144.2,65.5-222.8,62.7c-57.3-2-104.8-49.9-162-54.3c-59.4-4.5-111.2,38.1-168.6,53.9c-40.3,11-83.8,7.1-122.5-8.6
				v146.5c2.3,0.6,4.6,1.3,6.8,2.1c34.5,11.2,66.7,30,102.4,35.7c98,15.7,189-69.4,287.9-61.2c74.3,6.1,138.4,64.3,213,63.2
				c84.7-1.2,156.5-78.8,241-71.8c74.6,6.2,130.8,76.7,205,87.1c62.5,8.8,121.7-26.7,183.2-41c89.4-20.8,182.1,3.7,271.9,22.6
				c61.7,13,127.3,22.8,188.8,13.9v-169.1C1677.7,1110.7,1651.5,1112.7,1627.7,1108.2z"/>
			<linearGradient id="SVGID_14_" gradientUnits="userSpaceOnUse" x1="850" y1="1017.4142" x2="850" y2="1276.6346">
				<stop  offset="0" style="stop-color:#447890"/>
				<stop  offset="1" style="stop-color:#3E7E9C;stop-opacity:0"/>
			</linearGradient>
			<path fill="url(#SVGID_14_)" d="M1627.7,1108.2c-44-8.2-82.7-33.1-122.2-54.3c-39.4-21.2-83.6-39.4-127.8-32.6
				c-69.8,10.9-123.2,81.7-193.9,79.4c-62.1-2-112-61.1-174.2-61c-68.5,0-125.3,72-192.8,60.8c-53.9-9-87.8-67.8-141-80.5
				c-76.4-18.3-144.2,65.5-222.8,62.7c-57.3-2-104.8-49.9-162-54.3c-59.4-4.5-111.2,38.1-168.6,53.9c-40.3,11-83.8,7.1-122.5-8.6
				v146.5c2.3,0.6,4.6,1.3,6.8,2.1c34.5,11.2,66.7,30,102.4,35.7c98,15.7,189-69.4,287.9-61.2c74.3,6.1,138.4,64.3,213,63.2
				c84.7-1.2,156.5-78.8,241-71.8c74.6,6.2,130.8,76.7,205,87.1c62.5,8.8,121.7-26.7,183.2-41c89.4-20.8,182.1,3.7,271.9,22.6
				c61.7,13,127.3,22.8,188.8,13.9v-169.1C1677.7,1110.7,1651.5,1112.7,1627.7,1108.2z"/>
		</g>
	</g>
	<path clip-path="url(#SVGID_2_)" fill="#2B2649" d="M1291.9,427c2.3,3.4,4.5,6.7,7.5,9.5s6.6,5,10.6,5.4c3.9,0.4,7.9-0.8,11.4-2.6
		s6.8-4.2,10.1-6.4c-9.1,2.2-19.3-0.4-25.3-7.6c1-6.8,6.6-12,12.3-15.8c5.8-3.7,12.2-6.7,16.9-11.7c5.9-6.3,8.3-15.5,10.6-23.8
		c-10,12.8-27.4,17.9-37.5,30.6c-4,5-7.8,11-10.3,16.8c-8.5-0.4-15.9-5.6-24.1-7.9c-10.1-2.8-21.4-0.9-30,5.2
		C1259.1,423.9,1276.1,427.6,1291.9,427z"/>
	<path clip-path="url(#SVGID_2_)" fill="#2B2649" d="M360.6,337.9c-1.8,2.7-3.7,5.5-6.1,7.7c-2.4,2.3-5.3,4-8.6,4.4
		c-3.2,0.4-6.4-0.6-9.2-2.1c-2.8-1.5-5.5-3.4-8.2-5.2c7.4,1.8,15.7-0.3,20.5-6.2c-0.8-5.5-5.3-9.8-10-12.8c-4.7-3-9.9-5.4-13.7-9.5
		c-4.8-5.1-6.7-12.6-8.6-19.3c8.1,10.4,22.2,14.6,30.4,24.9c3.2,4,6.3,8.9,8.4,13.7c6.9-0.3,12.9-4.6,19.5-6.4
		c8.2-2.3,17.4-0.7,24.4,4.2C387.2,335.4,373.5,338.4,360.6,337.9z"/>
	<path clip-path="url(#SVGID_2_)" fill="#2B2649" d="M420.3,456.7c7.3,4.6,13,11.7,16,19.8c3,8.1,3.3,17.2,0.8,25.5
		c-4.9,0.3-10.1,0.3-14.9,0.6c3.7,4.2,8,8,13.1,10.2c5.1,2.2,11.3,2.5,16.2-0.2c3.1-1.7,5.4-4.5,7.7-7.3c2.2-2.7,4.5-5.6,7.6-7.4
		c3-1.8,7-2.5,10.1-0.7c-3.5-3.4-9.3-4.5-14.1-3.5c-4.8,0.9-9.1,3.4-13.4,5.8c2.6-9.1,0.4-19.5-4.7-27.5S429.7,458.1,420.3,456.7z"
		/>
	<path clip-path="url(#SVGID_2_)" fill="#2B2649" d="M1065.1,253.2c-7.3,4.6-13,11.7-16,19.8c-3,8.1-3.3,17.2-0.8,25.5
		c4.9,0.3,10.1,0.3,14.9,0.6c-3.7,4.2-8,8-13.1,10.2c-5.1,2.2-11.3,2.5-16.2-0.2c-3.1-1.7-5.4-4.5-7.7-7.3c-2.2-2.7-4.5-5.6-7.6-7.4
		c-3-1.8-7-2.5-10.1-0.7c3.5-3.4,9.3-4.5,14.1-3.5c4.8,0.9,9.1,3.4,13.4,5.8c-2.6-9.1-0.4-19.5,4.7-27.5S1055.7,254.6,1065.1,253.2z
		"/>
	<g opacity="0.7" clip-path="url(#SVGID_2_)">
		<linearGradient id="SVGID_15_" gradientUnits="userSpaceOnUse" x1="1185.28" y1="-2.5375" x2="1185.28" y2="93.8445">
			<stop  offset="1.315370e-03" style="stop-color:#EAE0C4"/>
			<stop  offset="1" style="stop-color:#EAE0C4;stop-opacity:0"/>
		</linearGradient>
		<path fill="url(#SVGID_15_)" d="M1054.9,49.9c15.4,0,29.7,4.7,41.5,12.6c20.2-38.7,60.6-65.1,107.2-65.1
			c50.3,0,93.4,30.7,111.6,74.5c6.8-3.2,14.3-4.9,22.3-4.9c19.8,0,37,10.8,46.1,26.8H986.9C998.6,67.9,1024.6,49.9,1054.9,49.9z"/>
		<linearGradient id="SVGID_16_" gradientUnits="userSpaceOnUse" x1="221.9361" y1="460.3847" x2="221.9361" y2="530.8813">
			<stop  offset="1.315370e-03" style="stop-color:#EAE0C4"/>
			<stop  offset="1" style="stop-color:#EAE0C4;stop-opacity:0"/>
		</linearGradient>
		<path fill="url(#SVGID_16_)" d="M126.6,498.7c11.2,0,21.7,3.4,30.4,9.2c14.7-28.3,44.3-47.6,78.4-47.6c36.8,0,68.3,22.5,81.6,54.5
			c5-2.3,10.5-3.6,16.3-3.6c14.5,0,27,7.9,33.7,19.6H76.8C85.4,511.9,104.4,498.7,126.6,498.7z"/>
		<linearGradient id="SVGID_17_" gradientUnits="userSpaceOnUse" x1="1279.3708" y1="426.5866" x2="1279.3708" y2="557.2037">
			<stop  offset="1.315370e-03" style="stop-color:#EAE0C4"/>
			<stop  offset="1" style="stop-color:#EAE0C4;stop-opacity:0"/>
		</linearGradient>
		<path fill="url(#SVGID_17_)" d="M1102.7,497.6c20.8,0,40.2,6.3,56.3,17.1c27.3-52.4,82.1-88.2,145.3-88.2
			c68.2,0,126.6,41.7,151.2,100.9c9.2-4.3,19.4-6.7,30.3-6.7c26.8,0,50.1,14.7,62.5,36.4h-537.8
			C1026.3,522.1,1061.7,497.6,1102.7,497.6z"/>
		<linearGradient id="SVGID_18_" gradientUnits="userSpaceOnUse" x1="1383.6979" y1="202.7755" x2="1383.6979" y2="310.0678">
			<stop  offset="1.315370e-03" style="stop-color:#EAE0C4"/>
			<stop  offset="1" style="stop-color:#EAE0C4;stop-opacity:0"/>
		</linearGradient>
		<path fill="url(#SVGID_18_)" d="M1259.2,254.7c25.2,0,48.4,8.3,67,22.4c26.9-44.6,75.8-74.4,131.6-74.4
			c68.7,0,126.9,45.1,146.5,107.3H1163C1182.3,277,1218.1,254.7,1259.2,254.7z"/>
		<linearGradient id="SVGID_19_" gradientUnits="userSpaceOnUse" x1="335.0833" y1="256.4217" x2="335.0833" y2="351.9539">
			<stop  offset="1.315370e-03" style="stop-color:#EAE0C4"/>
			<stop  offset="1" style="stop-color:#EAE0C4;stop-opacity:0"/>
		</linearGradient>
		<path fill="url(#SVGID_19_)" d="M224.3,302.7c22.4,0,43.1,7.4,59.7,20c24-39.7,67.5-66.2,117.2-66.2c61.2,0,113,40.2,130.5,95.5
			H138.5C155.7,322.5,187.7,302.7,224.3,302.7z"/>
		
			<linearGradient id="SVGID_20_" gradientUnits="userSpaceOnUse" x1="-3615.4897" y1="80.0653" x2="-3615.4897" y2="188.17" gradientTransform="matrix(-1 0 0 1 -3520.8335 0)">
			<stop  offset="1.315370e-03" style="stop-color:#EAE0C4"/>
			<stop  offset="1" style="stop-color:#EAE0C4;stop-opacity:0"/>
		</linearGradient>
		<path fill="url(#SVGID_20_)" d="M220.1,132.4c-25.3,0-48.7,8.4-67.5,22.6c-27.1-44.9-76.4-74.9-132.6-74.9
			c-69.2,0-127.8,45.4-147.6,108.1h444.8C297.6,154.8,261.5,132.4,220.1,132.4z"/>
		<linearGradient id="SVGID_21_" gradientUnits="userSpaceOnUse" x1="649.9112" y1="57.5702" x2="649.9112" y2="148.7627">
			<stop  offset="1.315370e-03" style="stop-color:#EAE0C4"/>
			<stop  offset="1" style="stop-color:#EAE0C4;stop-opacity:0"/>
		</linearGradient>
		<path fill="url(#SVGID_21_)" d="M755.7,101.7c-21.4,0-41.1,7.1-57,19c-22.9-37.9-64.4-63.2-111.9-63.2
			c-58.4,0-107.8,38.3-124.6,91.2h375.2C821.1,120.6,790.6,101.7,755.7,101.7z"/>
		<linearGradient id="SVGID_22_" gradientUnits="userSpaceOnUse" x1="813.4903" y1="219.3303" x2="813.4903" y2="322.4178">
			<stop  offset="1.315370e-03" style="stop-color:#EAE0C4"/>
			<stop  offset="1" style="stop-color:#EAE0C4;stop-opacity:0"/>
		</linearGradient>
		<path fill="url(#SVGID_22_)" d="M960.5,273.2c-15.3,0-29.8,3.8-42.4,10.5c-22.3-38.5-64-64.4-111.7-64.4
			c-40.7,0-77,18.8-100.7,48.3c-9-2.7-18.6-4.1-28.4-4.1c-40.6,0-75.6,24.2-91.4,58.9h455.3C1026.1,293.2,995.6,273.2,960.5,273.2z"
			/>
		<linearGradient id="SVGID_23_" gradientUnits="userSpaceOnUse" x1="1656.7245" y1="24.2553" x2="1656.7245" y2="107.3846">
			<stop  offset="1.315370e-03" style="stop-color:#EAE0C4"/>
			<stop  offset="1" style="stop-color:#EAE0C4;stop-opacity:0"/>
		</linearGradient>
		<path fill="url(#SVGID_23_)" d="M1753.2,64.5c-19.5,0-37.5,6.5-51.9,17.4c-20.8-34.5-58.7-57.6-102-57.6
			c-53.2,0-98.3,34.9-113.5,83.1h342C1812.8,81.7,1785,64.5,1753.2,64.5z"/>
	</g>
</g>
</svg>
