<?xml version="1.0" encoding="utf-8"?>
<!-- Generator: Adobe Illustrator 16.0.0, SVG Export Plug-In . SVG Version: 6.00 Build 0)  -->
<!DOCTYPE svg PUBLIC "-//W3C//DTD SVG 1.1//EN" "http://www.w3.org/Graphics/SVG/1.1/DTD/svg11.dtd">
<svg version="1.1" id="Layer_1" xmlns="http://www.w3.org/2000/svg" xmlns:xlink="http://www.w3.org/1999/xlink" x="0px" y="0px"
	 width="2800px" height="2800px" viewBox="0 0 2800 2800" enable-background="new 0 0 2800 2800" xml:space="preserve">
<g>
	<g>
		<linearGradient id="SVGID_1_" gradientUnits="userSpaceOnUse" x1="1399.9995" y1="-27.9229" x2="1399.9994" y2="3347.6963">
			<stop  offset="5.618224e-02" style="stop-color:#A2E6FF"/>
			<stop  offset="0.5811" style="stop-color:#4B6BA8"/>
			<stop  offset="1" style="stop-color:#283C58"/>
		</linearGradient>
		<rect fill="url(#SVGID_1_)" width="2800" height="2800"/>
		<linearGradient id="SVGID_2_" gradientUnits="userSpaceOnUse" x1="298.5054" y1="-806.0532" x2="1876.6639" y2="1506.8269">
			<stop  offset="0" style="stop-color:#A2E6FF"/>
			<stop  offset="3.603061e-02" style="stop-color:#8EC9EB"/>
			<stop  offset="8.742382e-02" style="stop-color:#76A8D3"/>
			<stop  offset="0.14" style="stop-color:#638DC0"/>
			<stop  offset="0.1934" style="stop-color:#567AB3"/>
			<stop  offset="0.2484" style="stop-color:#4E6FAB"/>
			<stop  offset="0.3072" style="stop-color:#4B6BA8"/>
			<stop  offset="0.7915" style="stop-color:#283C58"/>
		</linearGradient>
		<rect fill="url(#SVGID_2_)" width="2800" height="1616.5"/>
	</g>
	<g>
		<linearGradient id="SVGID_3_" gradientUnits="userSpaceOnUse" x1="1399.9995" y1="956.3574" x2="1399.9994" y2="3128.2341">
			<stop  offset="5.618224e-02" style="stop-color:#A2E6FF"/>
			<stop  offset="0.5811" style="stop-color:#4B6BA8"/>
			<stop  offset="1" style="stop-color:#283C58"/>
		</linearGradient>
		<path fill="url(#SVGID_3_)" d="M2208.1,1814.1c-123.7-36.7-379.5-19.6-513.1,18c-213,60-298.1,22.2-436.7,1.2
			c-156.3-23.7-361.4-35.2-490.4-4.2c-310.2,74.4-431.5,37.6-462,18.5C189.5,1774.8,0,1820.1,0,1820.1v87.4V2800h2800v-892.5v-87.4
			C2800,1820.1,2619.8,1936.4,2208.1,1814.1z"/>
		<linearGradient id="SVGID_4_" gradientUnits="userSpaceOnUse" x1="1399.9995" y1="1316.0527" x2="1399.9994" y2="2716.0527">
			<stop  offset="5.618224e-02" style="stop-color:#A2E6FF"/>
			<stop  offset="0.5811" style="stop-color:#4B6BA8"/>
			<stop  offset="0.9956" style="stop-color:#283C58"/>
		</linearGradient>
		<path fill="url(#SVGID_4_)" d="M2800,2221.3c-45.9-7.7-98.8-23-159.1-49.6c-83.2-36.7-255.3-19.6-345.2,18
			c-143.3,60-199.5,16.9-293.8,1.2c-237.8-39.6-273.8,82.2-516-19.2c-61-25.5-265.3,1.7-354,19.1c-164.3,55-191.8,21.1-285.1,0.1
			c-105.2-23.7-243.2-35.2-330-4.2c-208.7,74.4-290.4,37.6-310.9,18.5C127.5,2132.4,0,2177.7,0,2177.7v87.4V2800h1155.1h729H2800
			V2221.3z"/>
		<g>
			<path fill="#1E3147" d="M94.7,2644.9c12.4,1.1,26.8,2.6,37.8,5.3c9.9,2.4,19.6,6.5,29,10.3c12,4.9,23.8,10.6,35.2,16.9
				c44.8,24.6,89.8,61.8,104.6,112.8c0.6,2,1.1,3.9,1.5,5.9c0.4,1.8,1.6,3.1,2.9,3.9h6.5c1.3-0.8,2.3-2.3,2.4-4.4
				c2.3-32.3-2.3-65.1-10-96.5c-8.8-36-22.3-71.1-40.4-103.5c-31-55.5-81.7-110.1-148.4-113.9c26.6-9.8,55.1-15.2,83.1-17.2
				c38.7-2.7,82.2,2.3,113.1,27.8c4.9,4,11-2.3,8.9-7.5c-16-38.7-52.1-63.5-91.1-75.4c-33-10.1-69.4-12-103.3-4.7
				c27.4-27.6,68.3-38,105.9-44.5c45.2-7.8,92.4-9.2,136.1-24.1c2.6-0.9,5.1-1.9,7.7-2.9c4.4-1.8,4.3-7.8,0.9-10.4
				c-36.9-28.1-82.2-41.4-128.4-40.9c-45.1,0.5-89.7,13.2-130,33c-2.1,1-4.3,2.1-6.4,3.2c13.9-32.7,41.4-57.7,70.4-77.7
				c36-24.9,76.2-43.3,115.4-62.5c15.9-7.8,31.9-15.6,47.2-24.6c4.2-2.5,4.9-9.3-0.5-11.1c-41.9-14.1-87.2-15.9-130.8-9.9
				c-45.6,6.3-90.4,21.7-129.8,45.6c-30.5,18.5-58.1,42.5-78.3,72c1.5-11.4,4.6-22.6,8.1-33.3c7.1-21.5,17-42,28.4-61.4
				c11.6-19.8,25-38.5,40.2-55.7c7.5-8.6,15.7-16.9,24.6-24.3c8.1-5.1,16-10.5,23.7-16.3c5.4-4.1-0.5-13.3-6.4-10
				c-8.4,4.6-16.2,10.1-23.6,16.2c-32.1,20.1-67.4,34.9-101.1,52.5v527C31.4,2641.5,63.4,2642.2,94.7,2644.9z"/>
			<path fill="#1E3147" d="M865.5,2727.2c5.7-8.4,12.9-16.1,19.8-23.6c8.8-9.6,18.2-18.6,28.1-27.1c38.7-33.4,89.3-62.6,142.2-58.7
				c2,0.1,4.1,0.4,6.1,0.6c6.5,0.8,10.2-8.4,3.7-11.3c-29.5-13.5-61.8-20.5-93.9-24.3c-36.8-4.3-74.4-3.9-111.1,1.7
				c-62.9,9.7-131.6,38.2-158.5,99.4c0.1-28.4,4.9-56.9,12.9-83.9c11-37.2,30.8-76.2,65.5-96.3c5.5-3.2,1.6-11.1-3.9-10.9
				c-41.9,1.5-77.7,26.7-102.4,59.1c-21,27.5-35.4,60.8-40.4,95.2c-16.3-35.3-11.8-77.2-4.8-114.7c8.4-45.1,23.6-89.8,24.9-136
				c0.1-2.7,0.1-5.5,0-8.2c-0.1-4.8-5.8-6.7-9.4-4.4c-39.2,24.8-67.5,62.6-83,106.1c-15.2,42.5-18.9,88.6-14.4,133.3
				c0.2,2.4,0.5,4.7,0.8,7.1c-25.8-24.4-39.6-58.9-48.3-93.1c-10.8-42.5-14.1-86.5-18.3-129.9c-1.7-17.7-3.5-35.3-6.6-52.8
				c-0.8-4.8-7-7.8-10.5-3.4c-27.8,34.4-45.3,76.1-54.9,119.1c-10,44.9-11.2,92.3-2.5,137.5c6.7,35,19.6,69.3,40.2,98.4
				c-10.1-5.4-19.6-12.2-28.4-19.2c-17.7-14.1-33.4-30.6-47.6-48.1c-14.5-17.8-27.4-36.9-38.2-57.1c-5.4-10-10.4-20.6-14.2-31.5
				c-2-9.4-4.3-18.7-7-27.9c-2-6.5-12.6-4.2-11.6,2.5c1.4,9.5,3.8,18.7,6.9,27.7c11.1,53.8,9.4,109.8,23,163.2
				c7.5,29.5,20.1,57.6,35.7,84.1h465.4c5.2-13.3,10.9-26.4,16.9-39.2C852.6,2749.5,859.1,2736.5,865.5,2727.2z"/>
			<path fill="#1E3147" d="M2750.5,1897.8c-32.7-25.3-67.2-50.6-105.9-65.9c-25.4-10-54.7-15.4-80.5-3.8c-4.3,1.9-6.1,9-0.7,11.1
				c74.3,28.3,132.1,102.6,135.8,182.7c-51.1-23.9-94.6-62.2-148.6-80.1c-48.6-16-101.7-8.4-149.1,7.9
				c-52.7,18.1-106.1,49-140.6,93.7c-3.5,4.5,0.5,11.9,6.4,9.7c38.8-14.5,80.7-21.2,122-23.6c44.8-2.6,91.8,0.1,134.4,15.3
				c21.7,7.7,42.5,19.2,58.2,36c-15.1-1.8-30.3-1-45.2,2.8c-17.9,4.6-34.2,14.3-48.1,26.3c-30.4,26.2-50.7,62.5-68.2,98.1
				c-3.1,6.4,5.1,11.1,9.9,6.6c28.6-26.8,66.8-43.9,104.3-54c30.7-8.3,66.4-12.2,97.3-1.9c-62.5,20.2-93.6,93.5-98.4,155.4
				c-0.5,6.9,7.5,9.5,11.3,3.8c33-50.6,98.3-83.5,158.9-75.4c-1.5,1.2-2.8,2.6-3.9,4.3c-2.2,3.4,0.8,7.8,4.3,8.5
				c37.7,8.5,70.6,30.2,95.8,59.1v-377.3c-0.7-0.5-1.3-1-2-1.6C2782.2,1923,2766.5,1910.2,2750.5,1897.8z"/>
			<path fill="#1E3147" d="M2790.9,1819.6c2.9,6.1,6,12.4,9.1,18.8v-26.2c-0.8-0.1-1.5-0.3-2.3-0.4
				C2793.6,1811,2788.9,1815.3,2790.9,1819.6z"/>
			<path fill="#1E3147" d="M2738.6,2553.5c-18.9,10.8-31.2,28.7-38.3,48.7c-3.1-8.3-2.7-18.2-2-26.7c1.7-19.5,8.2-38.7,15.4-56.7
				c7.7-19.4,17.5-38,29-55.4c8.2-12.4,17.9-26.1,30.7-34c5-3.1,3-11.2-3-11.2c-36.4,0.1-73.9,7.5-103.5,29.7
				c-26.6,19.9-42.6,49.2-51,80.7c-4.1-9.1-6.5-19.4-8.4-28.8c-3.9-19.7-4.9-39.9-4.6-59.9c0.6-40,6.2-83.8,25.7-119.4
				c6-10.8,13.8-21.1,24.8-27.1c6.8-3.7,0.8-13.9-6.1-10.4c-40.9,21.4-84.3,45.7-111.5,84.2c-12,17-19,36.7-20.8,57.4
				c-1.2,13.4,0.2,26.9,3.1,40.1c-6.5-7.4-13.3-14.4-20.2-21.3c-17.5-17.5-35.8-34-53.6-51.3c-32.2-31.4-68-68-75.4-114.3
				c-1.1-7.1-1.1-14.4-0.6-21.6c0.3-4.2-5.5-7.9-9-5.2c-75.1,57.2-7.9,142.4,29.2,207.6c-44.2-34-90.9-65.4-141.8-88.4
				c-30-13.5-61.3-23.5-94.1-27.2c-35.4-4-71.1-0.8-106.4,2.4c-25.2,2.3-50.5,4.6-75.9,4.7c-6.9,0-8,9.8-1.6,11.8
				c43,13,83.7,33.5,120.3,59.4c32.7,23.1,63,52.1,82.6,87.3c-46.5-6.1-93.8-6.9-140.6-3.2c-53.9,4.2-108.1,14.7-157.6,36.8
				c-19.8,8.8-38.5,20-55.4,33.7c-6,4.9,2.5,13.3,8.5,8.5c34.5-28,86.6-27.1,128.2-21c47.3,6.9,95.4,22.9,135.4,49.5
				c3.8,2.5,7.5,5.2,11,8c-83.4,18.2-168.9,49.1-226.1,115.2c-16.8,19.5-30.1,41-40.4,63.9h52.5c25.7-34.4,59-64.2,100.7-77
				c47.6-14.6,97.5-1.7,144.1,10.9c49.7,13.4,98.6,31.9,143.1,58.1c4.4,2.6,8.8,5.3,13.1,8.1H2800v-260.2
				C2778.6,2539.4,2757.3,2542.8,2738.6,2553.5z"/>
		</g>
		<linearGradient id="SVGID_5_" gradientUnits="userSpaceOnUse" x1="1134.7593" y1="1975.2168" x2="1364.2002" y2="1975.2168">
			<stop  offset="5.618224e-02" style="stop-color:#A2E6FF"/>
			<stop  offset="0.886" style="stop-color:#4B6BA8"/>
		</linearGradient>
		<path fill="url(#SVGID_5_)" d="M1364.2,1975.2c0,3-229.4,3-229.4,0l0,0C1134.8,1972.2,1364.2,1972.2,1364.2,1975.2L1364.2,1975.2z
			"/>
		<linearGradient id="SVGID_6_" gradientUnits="userSpaceOnUse" x1="1285.2803" y1="1997.9902" x2="1514.7207" y2="1997.9902">
			<stop  offset="5.618224e-02" style="stop-color:#A2E6FF"/>
			<stop  offset="0.886" style="stop-color:#4B6BA8"/>
		</linearGradient>
		<path fill="url(#SVGID_6_)" d="M1514.7,1998c0,3-229.4,3-229.4,0l0,0C1285.3,1995,1514.7,1995,1514.7,1998L1514.7,1998z"/>
		<linearGradient id="SVGID_7_" gradientUnits="userSpaceOnUse" x1="1982.6729" y1="1692.4141" x2="2302.7002" y2="1692.4141">
			<stop  offset="5.618224e-02" style="stop-color:#A2E6FF"/>
			<stop  offset="0.886" style="stop-color:#4B6BA8"/>
		</linearGradient>
		<path fill="url(#SVGID_7_)" d="M2302.7,1692.4c0,3.6-320,3.6-320,0l0,0C1982.7,1688.8,2302.7,1688.8,2302.7,1692.4L2302.7,1692.4z
			"/>
		<linearGradient id="SVGID_8_" gradientUnits="userSpaceOnUse" x1="2192.6221" y1="1719.457" x2="2512.6494" y2="1719.457">
			<stop  offset="5.618224e-02" style="stop-color:#A2E6FF"/>
			<stop  offset="0.886" style="stop-color:#4B6BA8"/>
		</linearGradient>
		<path fill="url(#SVGID_8_)" d="M2512.6,1719.5c0,3.6-320,3.6-320,0l0,0C2192.6,1715.9,2512.6,1715.9,2512.6,1719.5L2512.6,1719.5z
			"/>
		<linearGradient id="SVGID_9_" gradientUnits="userSpaceOnUse" x1="84.5361" y1="1719.457" x2="404.5635" y2="1719.457">
			<stop  offset="5.618224e-02" style="stop-color:#A2E6FF"/>
			<stop  offset="0.886" style="stop-color:#4B6BA8"/>
		</linearGradient>
		<path fill="url(#SVGID_9_)" d="M404.6,1719.5c0,3.6-320,3.6-320,0l0,0C84.5,1715.8,404.6,1715.8,404.6,1719.5L404.6,1719.5z"/>
		<linearGradient id="SVGID_10_" gradientUnits="userSpaceOnUse" x1="294.4854" y1="1746.5" x2="614.5127" y2="1746.5">
			<stop  offset="5.618224e-02" style="stop-color:#A2E6FF"/>
			<stop  offset="0.886" style="stop-color:#4B6BA8"/>
		</linearGradient>
		<path fill="url(#SVGID_10_)" d="M614.5,1746.5c0,3.6-320,3.6-320,0l0,0C294.5,1742.9,614.5,1742.9,614.5,1746.5L614.5,1746.5z"/>
		<linearGradient id="SVGID_11_" gradientUnits="userSpaceOnUse" x1="553.8877" y1="2321.0488" x2="873.915" y2="2321.0488">
			<stop  offset="5.618224e-02" style="stop-color:#A2E6FF"/>
			<stop  offset="0.886" style="stop-color:#4B6BA8"/>
		</linearGradient>
		<path fill="url(#SVGID_11_)" d="M873.9,2321c0,3.6-320,3.6-320,0l0,0C553.9,2317.4,873.9,2317.4,873.9,2321L873.9,2321z"/>
		<linearGradient id="SVGID_12_" gradientUnits="userSpaceOnUse" x1="1514.7207" y1="2460.0625" x2="1834.748" y2="2460.0625">
			<stop  offset="5.618224e-02" style="stop-color:#A2E6FF"/>
			<stop  offset="0.886" style="stop-color:#4B6BA8"/>
		</linearGradient>
		<path fill="url(#SVGID_12_)" d="M1834.7,2460.1c0,3.6-320,3.6-320,0l0,0C1514.7,2456.5,1834.7,2456.5,1834.7,2460.1L1834.7,2460.1
			z"/>
	</g>
	<g>
		<linearGradient id="SVGID_13_" gradientUnits="userSpaceOnUse" x1="112" y1="964.3574" x2="3104.4692" y2="964.3574">
			<stop  offset="5.618224e-02" style="stop-color:#A2E6FF"/>
			<stop  offset="0.5811" style="stop-color:#4B6BA8"/>
			<stop  offset="1" style="stop-color:#283C58"/>
		</linearGradient>
		<path fill="url(#SVGID_13_)" d="M2800,312.2v1304.3H0c0,0,360.2-304.3,587.8-273.8c310,41.5,460.1-523.9,1076.4-550.5
			C2194.1,769.3,2108.2,312.2,2800,312.2z"/>
		<linearGradient id="SVGID_14_" gradientUnits="userSpaceOnUse" x1="1208.6401" y1="1200.9634" x2="3470.092" y2="1200.9634">
			<stop  offset="5.618224e-02" style="stop-color:#A2E6FF"/>
			<stop  offset="0.886" style="stop-color:#4B6BA8"/>
		</linearGradient>
		<path fill="url(#SVGID_14_)" d="M2800,785.4c-68.3,75.8-159.2,132-315.8,138.8c-616.3,26.6-902.5,460-1212.4,418.5
			c-227.6-30.5-587.8,273.8-587.8,273.8h2116V785.4z"/>
		<linearGradient id="SVGID_15_" gradientUnits="userSpaceOnUse" x1="2203.1445" y1="1323.9326" x2="3622.6565" y2="1323.9326">
			<stop  offset="5.618224e-02" style="stop-color:#A2E6FF"/>
			<stop  offset="0.886" style="stop-color:#4B6BA8"/>
		</linearGradient>
		<path fill="url(#SVGID_15_)" d="M2800,1032.9c-411.8-25.8-287.4,291.2-740.4,309.8c-229.4,9.5-587.8,273.8-587.8,273.8H2800
			V1032.9z"/>
	</g>
	<g>
		<g>
			<radialGradient id="SVGID_16_" cx="473.8789" cy="397.4409" r="257.53" gradientUnits="userSpaceOnUse">
				<stop  offset="0.1538" style="stop-color:#A2E6FF"/>
				<stop  offset="0.5189" style="stop-color:#A1E4FE"/>
				<stop  offset="0.6504" style="stop-color:#9CDDF9"/>
				<stop  offset="0.7441" style="stop-color:#94D2F1"/>
				<stop  offset="0.82" style="stop-color:#88C1E5"/>
				<stop  offset="0.8849" style="stop-color:#78ABD5"/>
				<stop  offset="0.9423" style="stop-color:#658FC2"/>
				<stop  offset="0.9931" style="stop-color:#4E70AB"/>
				<stop  offset="1" style="stop-color:#4B6BA8"/>
			</radialGradient>
			<path fill="url(#SVGID_16_)" d="M732.9,397.4c0,141.4-116,256-259,256s-259-114.6-259-256c0-141.4,116-256,259-256
				S732.9,256,732.9,397.4z"/>
			
				<linearGradient id="SVGID_17_" gradientUnits="userSpaceOnUse" x1="2694.8457" y1="626.0332" x2="2694.8457" y2="1239.2424" gradientTransform="matrix(-0.7071 0.7071 -0.7071 -0.7071 3540.7246 -244.4976)">
				<stop  offset="5.618224e-02" style="stop-color:#A2E6FF"/>
				<stop  offset="0.886" style="stop-color:#4B6BA8"/>
			</linearGradient>
			<path fill="url(#SVGID_17_)" d="M911.2,959.7c-6.2-6.2-178.3-200.9-178.3-200.9s194.7,172,200.9,178.3s6.2,16.4,0,22.6
				C927.6,965.9,917.4,965.9,911.2,959.7z"/>
			
				<linearGradient id="SVGID_18_" gradientUnits="userSpaceOnUse" x1="3281.9707" y1="1214.5044" x2="3281.9707" y2="1537.8757" gradientTransform="matrix(-0.7071 0.7071 -0.7071 -0.7071 3540.7246 -244.4976)">
				<stop  offset="5.618224e-02" style="stop-color:#A2E6FF"/>
				<stop  offset="0.886" style="stop-color:#4B6BA8"/>
			</linearGradient>
			<path fill="url(#SVGID_18_)" d="M212.9,1081c-3.3-3.3-94-105.9-94-105.9s102.7,90.7,105.9,94c3.3,3.3,3.3,8.6,0,11.9
				C221.5,1084.3,216.2,1084.3,212.9,1081z"/>
			
				<linearGradient id="SVGID_19_" gradientUnits="userSpaceOnUse" x1="1533.6953" y1="480.2837" x2="1533.6953" y2="803.655" gradientTransform="matrix(-0.7071 0.7071 -0.7071 -0.7071 3540.7246 -244.4976)">
				<stop  offset="5.618224e-02" style="stop-color:#A2E6FF"/>
				<stop  offset="0.886" style="stop-color:#4B6BA8"/>
			</linearGradient>
			<path fill="url(#SVGID_19_)" d="M1968.3,364c-3.3-3.3-94-105.9-94-105.9s102.7,90.7,105.9,94c3.3,3.3,3.3,8.6,0,11.9
				C1976.9,367.2,1971.6,367.2,1968.3,364z"/>
			
				<linearGradient id="SVGID_20_" gradientUnits="userSpaceOnUse" x1="2135.8779" y1="694.5049" x2="2135.8779" y2="1223.8594" gradientTransform="matrix(-0.7071 0.7071 -1.3899 -1.3899 4218.5566 433.334)">
				<stop  offset="5.618224e-02" style="stop-color:#A2E6FF"/>
				<stop  offset="0.886" style="stop-color:#4B6BA8"/>
			</linearGradient>
			<path fill="url(#SVGID_20_)" d="M1275.1,530c-10.6-10.6-311.9-331.5-311.9-331.5s320.9,301.3,331.5,311.9
				c10.6,10.6,14.8,23.6,9.4,29C1298.6,544.8,1285.7,540.6,1275.1,530z"/>
		</g>
		<g>
			<g>
				<circle fill="#283C58" cx="1470.5" cy="964.4" r="5.7"/>
				<circle fill="#283C58" cx="2382.5" cy="680.2" r="5.7"/>
				<circle fill="#283C58" cx="2670.5" cy="1153.4" r="5.7"/>
				<circle fill="#283C58" cx="2253.9" cy="1352.2" r="5.7"/>
				<circle fill="#283C58" cx="2248.2" cy="1083.5" r="5.7"/>
				<circle fill="#283C58" cx="548.2" cy="1482.5" r="5.7"/>
				<circle fill="#283C58" cx="1336.2" cy="1476.8" r="5.7"/>
				<circle fill="#283C58" cx="1134.8" cy="1201" r="5.7"/>
				<circle fill="#283C58" cx="1874.3" cy="1434.5" r="5.7"/>
				<circle fill="#283C58" cx="1868.6" cy="928.2" r="5.7"/>
			</g>
			<g>
				<circle fill="#FFFFFF" cx="1628.2" cy="598.5" r="5.7"/>
				<circle fill="#FFFFFF" cx="1558.5" cy="198.5" r="5.7"/>
				<circle fill="#FFFFFF" cx="2336.2" cy="81.9" r="5.7"/>
				<circle fill="#FFFFFF" cx="2216.2" cy="366.4" r="5.7"/>
				<circle fill="#FFFFFF" cx="620.2" cy="397.4" r="5.7"/>
				<circle fill="#FFFFFF" cx="444.2" cy="980.7" r="5.7"/>
				<circle fill="#FFFFFF" cx="118.9" cy="192.8" r="5.7"/>
				<circle fill="#FFFFFF" cx="40.2" cy="1394.3" r="5.7"/>
				<circle fill="#FFFFFF" cx="732.9" cy="1201" r="5.7"/>
				<circle fill="#FFFFFF" cx="904.2" cy="438.5" r="5.7"/>
			</g>
		</g>
	</g>
</g>
</svg>
