<svg aria-hidden="true" style="position: absolute; width: 0; height: 0; overflow: hidden;" version="1.1" xmlns="http://www.w3.org/2000/svg" xmlns:xlink="http://www.w3.org/1999/xlink">
<defs>
<symbol id="icon-cloud-drizzle" viewBox="0 0 24 24">
<path d="M7 19v2c0 0.552 0.448 1 1 1s1-0.448 1-1v-2c0-0.552-0.448-1-1-1s-1 0.448-1 1zM7 13v2c0 0.552 0.448 1 1 1s1-0.448 1-1v-2c0-0.552-0.448-1-1-1s-1 0.448-1 1zM15 19v2c0 0.552 0.448 1 1 1s1-0.448 1-1v-2c0-0.552-0.448-1-1-1s-1 0.448-1 1zM15 13v2c0 0.552 0.448 1 1 1s1-0.448 1-1v-2c0-0.552-0.448-1-1-1s-1 0.448-1 1zM11 21v2c0 0.552 0.448 1 1 1s1-0.448 1-1v-2c0-0.552-0.448-1-1-1s-1 0.448-1 1zM11 15v2c0 0.552 0.448 1 1 1s1-0.448 1-1v-2c0-0.552-0.448-1-1-1s-1 0.448-1 1zM20.401 17.496c1.517-0.665 2.623-1.883 3.181-3.312s0.572-3.074-0.092-4.591c-0.574-1.311-1.563-2.316-2.752-2.925-0.836-0.428-1.771-0.66-2.73-0.668h-0.528c-0.725-2.057-2.143-3.708-3.915-4.753-1.983-1.169-4.415-1.582-6.821-0.961s-4.334 2.161-5.503 4.144-1.582 4.415-0.961 6.821c0.509 1.97 1.634 3.623 3.099 4.783 0.433 0.343 1.062 0.27 1.405-0.163s0.27-1.062-0.163-1.405c-1.132-0.897-2.008-2.179-2.405-3.716-0.483-1.871-0.163-3.76 0.748-5.305s2.408-2.739 4.28-3.223 3.761-0.163 5.305 0.748 2.739 2.408 3.223 4.28c0.115 0.435 0.505 0.75 0.968 0.75h1.252c0.647 0.005 1.275 0.162 1.834 0.448 0.793 0.406 1.448 1.073 1.832 1.947 0.443 1.012 0.435 2.106 0.062 3.061s-1.109 1.765-2.121 2.208c-0.506 0.222-0.736 0.811-0.515 1.317s0.811 0.736 1.317 0.515z"></path>
</symbol>
<symbol id="icon-sun" viewBox="0 0 24 24">
<path d="M18 12c0-1.657-0.673-3.158-1.757-4.243s-2.586-1.757-4.243-1.757-3.158 0.673-4.243 1.757-1.757 2.586-1.757 4.243 0.673 3.158 1.757 4.243 2.586 1.757 4.243 1.757 3.158-0.673 4.243-1.757 1.757-2.586 1.757-4.243zM16 12c0 1.105-0.447 2.103-1.172 2.828s-1.723 1.172-2.828 1.172-2.103-0.447-2.828-1.172-1.172-1.723-1.172-2.828 0.447-2.103 1.172-2.828 1.723-1.172 2.828-1.172 2.103 0.447 2.828 1.172 1.172 1.723 1.172 2.828zM11 1v2c0 0.552 0.448 1 1 1s1-0.448 1-1v-2c0-0.552-0.448-1-1-1s-1 0.448-1 1zM11 21v2c0 0.552 0.448 1 1 1s1-0.448 1-1v-2c0-0.552-0.448-1-1-1s-1 0.448-1 1zM3.513 4.927l1.42 1.42c0.391 0.391 1.024 0.391 1.414 0s0.391-1.024 0-1.414l-1.42-1.42c-0.391-0.391-1.024-0.391-1.414 0s-0.391 1.024 0 1.414zM17.653 19.067l1.42 1.42c0.391 0.391 1.024 0.391 1.414 0s0.391-1.024 0-1.414l-1.42-1.42c-0.391-0.391-1.024-0.391-1.414 0s-0.391 1.024 0 1.414zM1 13h2c0.552 0 1-0.448 1-1s-0.448-1-1-1h-2c-0.552 0-1 0.448-1 1s0.448 1 1 1zM21 13h2c0.552 0 1-0.448 1-1s-0.448-1-1-1h-2c-0.552 0-1 0.448-1 1s0.448 1 1 1zM4.927 20.487l1.42-1.42c0.391-0.391 0.391-1.024 0-1.414s-1.024-0.391-1.414 0l-1.42 1.42c-0.391 0.391-0.391 1.024 0 1.414s1.024 0.391 1.414 0zM19.067 6.347l1.42-1.42c0.391-0.391 0.391-1.024 0-1.414s-1.024-0.391-1.414 0l-1.42 1.42c-0.391 0.391-0.391 1.024 0 1.414s1.024 0.391 1.414 0z"></path>
</symbol>
<symbol id="icon-wind" viewBox="0 0 24 24">
<path d="M10.299 5.295c0.195-0.196 0.449-0.294 0.706-0.295s0.512 0.096 0.708 0.291 0.294 0.449 0.295 0.706-0.096 0.512-0.291 0.708c-0.192 0.194-0.442 0.292-0.697 0.295h-9.020c-0.552 0-1 0.448-1 1s0.448 1 1 1h9.043c0.758-0.009 1.516-0.304 2.093-0.885 0.584-0.587 0.875-1.358 0.872-2.124s-0.298-1.535-0.885-2.119-1.357-0.874-2.123-0.872-1.535 0.298-2.119 0.885c-0.39 0.392-0.388 1.025 0.004 1.414s1.025 0.387 1.414-0.004zM11.881 20.115c0.584 0.587 1.352 0.883 2.119 0.885s1.537-0.289 2.124-0.872 0.883-1.352 0.885-2.119-0.289-1.537-0.872-2.124c-0.577-0.581-1.335-0.876-2.093-0.885h-12.044c-0.552 0-1 0.448-1 1s0.448 1 1 1h12.020c0.255 0.003 0.505 0.101 0.698 0.295 0.195 0.196 0.292 0.451 0.291 0.708s-0.099 0.511-0.295 0.706-0.451 0.292-0.708 0.291-0.511-0.099-0.706-0.295c-0.389-0.392-1.023-0.394-1.414-0.004s-0.394 1.023-0.004 1.414zM18.436 8.438c0.294-0.293 0.676-0.438 1.061-0.438s0.767 0.147 1.060 0.441 0.438 0.676 0.438 1.061-0.147 0.767-0.441 1.060c-0.292 0.292-0.673 0.437-1.057 0.438h-17.497c-0.552 0-1 0.448-1 1s0.448 1 1 1h17.502c0.891-0.002 1.784-0.342 2.466-1.022 0.684-0.682 1.027-1.579 1.028-2.474s-0.34-1.792-1.022-2.476-1.58-1.027-2.474-1.028-1.792 0.34-2.476 1.022c-0.391 0.39-0.392 1.023-0.002 1.414s1.023 0.392 1.414 0.002z"></path>
</symbol>
</defs>
</svg>
